<?xml version="1.0" standalone="no"?>
<!DOCTYPE svg PUBLIC "-//W3C//DTD SVG 20010904//EN"
 "http://www.w3.org/TR/2001/REC-SVG-20010904/DTD/svg10.dtd">
<svg version="1.0" xmlns="http://www.w3.org/2000/svg"
 width="700.000000pt" height="700.000000pt" viewBox="0 0 700.000000 700.000000"
 preserveAspectRatio="xMidYMid meet">
<metadata>
Created by potrace 1.14, written by Peter Selinger 2001-2017
</metadata>
<g transform="translate(0.000000,700.000000) scale(0.100000,-0.100000)"
fill="#000000" stroke="none">
<path d="M3680 6994 c-83 -30 -123 -70 -222 -219 -200 -301 -312 -653 -319
-1003 l-2 -102 -35 0 c-94 0 -251 -75 -319 -153 -73 -83 -119 -193 -126 -300
-3 -38 -6 -69 -8 -70 -2 -1 -26 -13 -54 -26 -27 -12 -71 -36 -96 -52 l-47 -30
-63 35 c-79 43 -222 91 -309 105 -67 10 -508 9 -546 -2 -12 -3 -37 -8 -56 -11
-49 -8 -172 -54 -238 -89 -230 -122 -407 -338 -475 -579 -35 -122 -41 -184
-39 -358 2 -150 11 -383 19 -465 2 -22 6 -71 10 -110 17 -205 68 -563 105
-735 5 -25 12 -60 15 -79 3 -19 8 -38 10 -41 3 -4 7 -25 11 -46 3 -22 28 -124
55 -229 27 -104 51 -197 53 -205 2 -8 13 -44 25 -80 45 -145 154 -497 161
-525 4 -16 40 -133 80 -260 39 -126 73 -237 76 -245 44 -163 198 -638 221
-684 91 -180 234 -310 423 -384 91 -35 140 -44 255 -48 93 -2 123 1 191 21 94
28 181 76 250 138 l48 44 50 -39 c74 -55 171 -104 261 -130 76 -22 95 -23 410
-23 314 0 334 1 410 23 106 31 220 93 296 161 l62 56 66 -66 c124 -124 255
-180 431 -185 300 -8 576 159 713 432 23 45 66 178 234 724 19 63 46 149 58
190 13 41 38 122 55 180 18 58 38 123 45 145 8 22 30 94 50 160 20 66 47 154
60 195 23 73 95 324 110 385 5 17 9 35 11 40 29 114 84 368 104 480 5 33 12
71 15 85 3 13 7 42 10 65 3 22 10 67 15 100 5 33 12 83 15 110 3 28 7 59 9 70
2 11 7 52 10 90 4 39 9 84 11 100 2 17 7 73 10 125 3 52 8 133 12 180 9 136
10 441 1 490 -5 25 -11 59 -14 75 -9 55 -46 159 -84 235 -112 223 -311 397
-545 475 -128 43 -212 54 -435 54 -185 -1 -229 -3 -338 -23 -52 -10 -190 -63
-250 -97 l-55 -31 -40 29 -41 28 -2 85 c-2 103 -15 154 -61 243 -62 118 -187
211 -318 237 -33 6 -107 12 -165 13 l-105 2 0 180 c0 213 6 266 47 469 21 105
62 246 97 334 12 30 22 75 22 101 2 86 -61 185 -138 218 -39 16 -136 26 -163
17z"/>
</g>
</svg>
