<?xml version="1.0" standalone="no"?>
<!DOCTYPE svg PUBLIC "-//W3C//DTD SVG 20010904//EN"
 "http://www.w3.org/TR/2001/REC-SVG-20010904/DTD/svg10.dtd">
<svg version="1.0" xmlns="http://www.w3.org/2000/svg"
 width="260.000000pt" height="260.000000pt" viewBox="0 0 260.000000 260.000000"
 preserveAspectRatio="xMidYMid meet">
<metadata>
Created by potrace 1.14, written by Peter Selinger 2001-2017
</metadata>
<g transform="translate(0.000000,260.000000) scale(0.100000,-0.100000)"
fill="#000000" stroke="none">
<path d="M1083 2584 c-5 -13 -20 -13 -42 0 -9 6 -12 5 -8 0 3 -6 -8 -15 -24
-21 -27 -11 -29 -10 -17 4 12 15 11 15 -9 3 -12 -8 -20 -17 -18 -20 2 -3 -12
-4 -31 -2 -24 3 -35 0 -40 -12 -3 -9 -10 -13 -15 -10 -6 3 -17 0 -25 -7 -13
-10 -17 -10 -25 2 -7 12 -9 12 -10 -1 -1 -8 -1 -18 0 -22 0 -4 -7 -4 -16 -1
-12 5 -14 3 -8 -8 7 -12 6 -12 -7 -1 -14 11 -18 10 -27 -5 -6 -10 -11 -15 -11
-11 0 13 -60 -14 -60 -28 0 -8 -6 -11 -15 -8 -8 4 -15 1 -15 -5 0 -6 -7 -11
-15 -11 -9 0 -18 -6 -21 -14 -3 -8 -11 -13 -17 -10 -7 2 -24 -7 -39 -21 -15
-14 -32 -25 -38 -25 -6 0 -15 -10 -20 -22 -5 -13 -9 -16 -9 -8 -1 10 -6 7 -17
-8 -8 -12 -18 -21 -22 -19 -7 3 -52 -39 -51 -49 1 -10 -50 -52 -55 -46 -6 5
-10 -14 -7 -30 0 -5 -2 -7 -6 -5 -10 3 -48 -35 -56 -57 -4 -10 -12 -14 -19
-10 -7 5 -9 2 -5 -9 3 -9 0 -18 -9 -21 -8 -3 -19 -17 -24 -31 -6 -15 -14 -23
-20 -20 -6 3 -7 -1 -4 -9 3 -9 1 -16 -6 -16 -6 0 -8 -4 -5 -10 3 -5 1 -10 -5
-10 -7 0 -10 -7 -7 -14 4 -10 1 -13 -8 -10 -9 4 -13 -2 -11 -20 2 -14 -1 -23
-5 -20 -5 3 -9 -2 -9 -11 0 -9 -4 -14 -9 -11 -5 4 -8 -5 -7 -18 2 -14 -2 -24
-7 -23 -6 1 -11 -4 -12 -11 0 -7 -7 -17 -15 -22 -13 -9 -13 -10 0 -10 11 -1
10 -4 -4 -15 -11 -8 -14 -15 -8 -15 7 0 12 -4 12 -10 0 -5 -5 -9 -11 -7 -6 1
-13 -11 -14 -27 -2 -15 -11 -36 -19 -45 -12 -13 -13 -20 -4 -29 8 -8 9 -12 1
-12 -6 0 -9 -9 -6 -20 3 -12 0 -20 -6 -20 -7 0 -9 -4 -6 -10 3 -5 2 -10 -3
-10 -6 0 -8 -9 -5 -20 3 -13 0 -20 -8 -20 -9 0 -10 -3 -4 -8 6 -4 10 -21 11
-39 0 -22 -3 -29 -11 -23 -16 13 -18 -229 -2 -249 9 -12 9 -13 0 -7 -16 9 -17
-18 -2 -46 6 -11 7 -18 2 -15 -5 3 -9 -8 -8 -24 1 -17 7 -34 14 -38 7 -4 11
-12 10 -17 -5 -26 2 -64 11 -59 5 3 7 0 4 -8 -3 -8 -1 -18 4 -21 6 -3 8 -15 5
-26 -3 -13 0 -20 8 -20 10 0 10 -3 1 -12 -8 -8 -6 -18 9 -39 11 -16 18 -33 14
-38 -3 -5 0 -13 6 -16 5 -4 8 -13 5 -21 -3 -8 1 -17 9 -20 8 -4 12 -10 9 -15
-3 -5 0 -9 6 -9 6 0 8 -4 5 -10 -3 -5 -2 -10 4 -10 6 0 8 -6 5 -14 -3 -8 0
-17 7 -22 8 -5 10 -3 4 6 -5 8 -4 11 3 6 6 -4 9 -13 5 -21 -3 -8 0 -15 6 -15
6 0 11 -9 11 -20 0 -11 5 -20 11 -20 5 0 7 -4 4 -10 -3 -6 2 -10 12 -10 15 0
16 -2 3 -10 -13 -8 -12 -10 3 -10 10 0 15 -4 12 -10 -3 -5 -1 -10 4 -10 6 0
10 -3 10 -7 -3 -20 2 -34 10 -28 5 3 13 -5 16 -17 4 -13 20 -35 36 -49 15 -15
25 -30 22 -33 -4 -3 1 -6 11 -6 9 0 15 -3 13 -7 -2 -5 25 -37 62 -73 36 -36
61 -58 56 -50 -6 9 -3 8 7 -2 9 -10 21 -18 28 -18 6 0 8 -4 5 -10 -3 -5 6 -12
20 -16 13 -3 23 -9 20 -14 -2 -4 7 -12 20 -18 14 -7 25 -16 25 -22 0 -6 5 -8
10 -5 6 4 20 -5 31 -19 11 -15 26 -23 34 -19 8 3 15 0 15 -7 0 -6 4 -8 10 -5
5 3 10 1 10 -5 0 -6 4 -8 10 -5 5 3 10 1 10 -4 0 -6 6 -10 13 -9 6 2 11 -4 9
-12 -2 -8 0 -12 4 -8 4 4 14 2 22 -5 13 -10 15 -9 8 8 -7 18 -6 18 13 -2 13
-14 27 -20 38 -16 11 4 14 3 9 -5 -5 -8 0 -12 13 -12 12 0 21 -6 21 -12 0 -9
3 -9 9 1 8 12 12 12 25 2 9 -7 14 -17 11 -20 -2 -4 2 -8 10 -8 8 0 12 4 9 9
-3 4 0 8 5 8 6 0 11 -5 11 -11 0 -7 12 -10 29 -7 17 2 29 0 28 -5 -1 -5 4 -12
12 -15 8 -2 11 0 8 5 -3 5 0 10 8 10 8 0 12 -4 10 -8 -3 -4 2 -10 11 -13 10
-4 13 -2 8 7 -5 8 -2 7 9 -2 14 -11 17 -11 17 0 0 9 3 10 8 3 4 -6 18 -10 32
-9 14 1 28 -3 32 -9 10 -16 71 -15 90 2 16 13 18 13 23 0 8 -20 155 -19 179 1
17 15 40 6 30 -12 -4 -7 4 -2 17 10 20 18 28 20 37 11 9 -9 12 -8 13 8 0 11 3
14 6 6 4 -10 8 -10 21 0 12 10 14 10 8 1 -4 -7 -2 -13 3 -13 6 0 11 5 11 10 0
6 3 9 8 9 20 -3 43 2 38 9 -3 5 1 9 9 9 8 0 12 -4 9 -9 -9 -14 7 -9 39 14 17
12 27 16 22 7 -7 -12 -6 -12 7 -1 13 10 17 10 21 0 3 -8 6 -6 6 6 1 12 6 16
17 12 10 -4 13 -2 8 6 -5 7 -2 9 9 5 8 -3 21 1 27 9 7 8 21 14 32 14 13 0 17
4 12 13 -5 8 -3 8 9 -2 14 -11 18 -11 23 3 3 9 12 16 20 16 8 0 23 9 33 19 11
11 22 17 25 14 3 -4 6 -1 6 6 0 7 5 9 10 6 6 -3 10 -1 10 5 0 6 4 9 9 5 6 -3
14 3 20 12 6 10 11 14 11 10 0 -4 6 -2 14 5 8 7 11 18 8 23 -3 6 2 4 11 -4 17
-13 18 -12 21 10 2 16 37 39 49 32 6 -4 8 0 4 11 -5 14 -3 17 8 12 9 -3 15 0
15 10 0 8 5 12 10 9 6 -3 10 0 10 7 0 8 14 22 30 31 17 10 30 23 30 28 0 6 4
7 10 4 6 -3 7 1 4 9 -3 9 -1 16 5 16 6 0 11 7 11 16 0 10 6 14 14 11 10 -4 18
2 22 16 4 11 13 27 20 35 8 7 11 18 8 24 -4 6 -2 8 3 5 6 -4 14 0 17 9 3 8 11
12 17 8 7 -4 9 -3 5 4 -3 6 0 17 8 25 8 8 12 17 9 21 -4 3 -1 6 6 6 7 0 10 4
7 9 -4 5 -3 11 2 13 4 1 19 21 32 42 15 25 18 37 9 32 -8 -4 -6 -1 3 7 10 8
15 17 11 20 -3 4 -1 7 6 7 7 0 9 5 6 10 -3 6 -1 10 5 10 6 0 8 5 5 10 -3 6 -2
10 4 10 5 0 8 9 6 21 -3 14 0 19 9 16 10 -4 13 3 11 24 -1 16 2 29 7 29 6 0 8
9 5 20 -3 11 0 23 5 27 7 4 8 1 3 -7 -5 -8 -4 -11 2 -7 6 4 10 20 9 36 -1 17
1 28 5 25 13 -7 18 23 6 36 -9 10 -9 11 1 6 12 -7 14 -1 14 56 1 15 5 25 9 22
5 -3 9 0 9 5 0 6 -5 11 -11 11 -5 0 -7 5 -4 10 4 6 10 8 13 6 4 -2 8 10 9 27
0 18 -4 35 -11 39 -8 6 -7 8 2 8 8 0 12 12 10 35 -1 19 -6 35 -10 35 -4 0 -8
5 -8 11 0 5 4 8 8 5 5 -3 9 12 9 34 0 22 -4 37 -9 34 -4 -3 -8 0 -8 5 0 6 4
11 8 11 5 0 8 14 8 30 0 17 -4 30 -10 30 -7 0 -8 3 -1 8 14 10 16 44 2 35 -6
-4 -8 0 -4 10 3 10 3 17 -2 17 -4 0 -7 16 -6 36 1 20 -4 42 -12 50 -8 8 -10
14 -4 14 12 0 11 22 -2 31 -4 3 -9 20 -10 37 -1 18 -8 34 -15 37 -7 3 -11 15
-8 30 3 14 1 23 -3 20 -8 -4 -25 50 -22 68 0 4 -6 7 -14 7 -8 0 -14 3 -14 8 3
20 -3 55 -8 43 -3 -7 -14 11 -24 40 -11 30 -26 59 -34 65 -8 6 -15 19 -15 28
0 9 -4 16 -9 16 -5 0 -12 9 -16 19 -4 12 -12 18 -21 14 -9 -3 -12 0 -9 9 6 16
-52 85 -67 80 -5 -1 -7 2 -3 8 7 11 -18 40 -35 40 -6 0 -9 4 -6 9 3 5 -1 12
-10 15 -8 3 -12 11 -9 16 4 6 3 10 -2 9 -21 -4 -33 2 -33 17 0 8 -4 13 -9 9
-5 -3 -12 4 -16 14 -4 13 -11 18 -22 14 -13 -5 -15 -2 -10 11 4 9 3 15 -2 12
-5 -3 -14 1 -21 9 -7 8 -19 15 -27 15 -8 0 -11 5 -8 10 3 6 -1 10 -9 10 -9 0
-16 5 -16 10 0 6 -9 10 -20 10 -11 0 -25 9 -32 19 -10 16 -15 18 -28 8 -8 -6
-12 -7 -8 -3 11 13 -11 36 -32 36 -10 0 -21 8 -24 17 -6 15 -8 15 -16 3 -8
-12 -10 -12 -16 3 -3 9 -10 14 -15 11 -5 -3 -9 -1 -9 4 0 6 -10 8 -22 6 -13
-2 -17 -1 -9 2 10 5 4 11 -20 19 -19 6 -39 8 -45 3 -15 -11 -26 2 -14 17 7 9
2 11 -20 10 -17 -1 -30 2 -30 6 0 5 -7 6 -16 2 -9 -3 -20 0 -25 8 -7 11 -9 11
-9 1 0 -10 -4 -9 -16 3 -14 13 -19 14 -25 3 -7 -11 -9 -11 -9 0 0 7 -5 10 -10
7 -6 -4 -23 0 -38 7 -35 18 -343 23 -374 7 -11 -6 -18 -7 -15 -2 3 5 -6 9 -20
9 -14 0 -27 -5 -30 -12z m412 -4 c-3 -5 -12 -10 -18 -10 -7 0 -6 4 3 10 19 12
23 12 15 0z m-1471 -1470 c-6 -6 -10 -3 -10 10 0 13 4 16 10 10 7 -7 7 -13 0
-20z m617 -917 c13 -16 12 -17 -3 -4 -10 7 -18 15 -18 17 0 8 8 3 21 -13z
m694 -181 c-3 -3 -11 0 -18 7 -9 10 -8 11 6 5 10 -3 15 -9 12 -12z"/>
<path d="M1245 10 c-3 -5 -1 -10 4 -10 6 0 11 5 11 10 0 6 -2 10 -4 10 -3 0
-8 -4 -11 -10z"/>
</g>
</svg>
