<svg xmlns="http://www.w3.org/2000/svg" xml:space="preserve" id="_x32_" width="800" height="800" version="1.1" viewBox="0 0 512 512">
  <style>
    .st0{fill:#000}
  </style>
  <path d="M454.6 111.2 280.57 6.8a47.7 47.7 0 0 0-49.12 0L57.4 111.2a47.65 47.65 0 0 0-13.56 12.2l207.9 124.7a8.27 8.27 0 0 0 8.53 0l207.9-124.7a47.65 47.65 0 0 0-13.55-12.2zm-296.89 19.11c-10.96 7.61-28.45 7.42-39.08-.45-10.62-7.86-10.34-20.41.62-28.03 10.96-7.63 28.46-7.42 39.08.44 10.62 7.86 10.34 20.41-.62 28.04zm116.45.71c-10.6 7.36-27.5 7.17-37.76-.43-10.27-7.6-10-19.73.6-27.09 10.59-7.36 27.49-7.17 37.75.43 10.27 7.6 10 19.73-.6 27.1zm117.75 1.68c-10.97 7.62-28.46 7.42-39.09-.44-10.61-7.86-10.34-20.42.62-28.05 10.96-7.6 28.46-7.42 39.08.45 10.63 7.86 10.35 20.42-.61 28.04zM246.14 258.37 38 133.52a47.67 47.67 0 0 0-3.8 18.62v208.09c0 16.77 8.8 32.3 23.18 40.94l174.05 104.4a47.7 47.7 0 0 0 18.72 6.43V265.46c0-2.9-1.53-5.6-4.02-7.1zM75.84 369.74C63.8 363.17 54.02 348.06 54.02 336c0-12.06 9.77-16.5 21.82-9.93 12.06 6.57 21.83 21.67 21.83 33.73 0 12.05-9.77 16.5-21.83 9.93zm0-121.87c-12.05-6.58-21.82-21.68-21.82-33.73 0-12.05 9.77-16.5 21.82-9.93 12.06 6.57 21.83 21.67 21.83 33.73 0 12.05-9.77 16.5-21.83 9.93zm121.88 188.29c-12.06-6.57-21.83-21.67-21.83-33.73 0-12.05 9.77-16.5 21.83-9.92 12.05 6.57 21.82 21.67 21.82 33.72 0 12.05-9.77 16.5-21.82 9.93zm0-121.87c-12.06-6.57-21.83-21.67-21.83-33.73s9.77-16.5 21.83-9.93c12.05 6.57 21.82 21.67 21.82 33.73 0 12.06-9.77 16.5-21.82 9.93zM474 133.52 265.85 258.37a8.27 8.27 0 0 0-4.02 7.1V512a47.7 47.7 0 0 0 18.72-6.43l174.05-104.4a47.76 47.76 0 0 0 23.18-40.94V152.14c0-6.5-1.34-12.81-3.8-18.62zM370.47 355.11c-19.29 10.51-34.92 3.4-34.92-15.9 0-19.27 15.63-43.44 34.92-53.94 19.3-10.52 34.92-3.4 34.92 15.88s-15.63 43.45-34.92 53.96z" class="st0"/>
</svg>
