<svg xmlns="http://www.w3.org/2000/svg" xml:space="preserve" width="800" height="800" viewBox="0 0 330 330">
  <path d="M281.63 48.33A163.92 163.92 0 0 0 164.96 0C120.9 0 79.46 17.16 48.3 48.33c-64.33 64.33-64.33 169 0 233.34A163.92 163.92 0 0 0 164.96 330c44.07 0 85.5-17.16 116.67-48.33 31.17-31.16 48.33-72.6 48.33-116.67S312.8 79.5 281.63 48.33zm-21.21 212.13A134.12 134.12 0 0 1 164.96 300a134.12 134.12 0 0 1-95.46-39.54c-52.63-52.64-52.63-138.28 0-190.92C95 44.04 128.9 30 164.96 30s69.96 14.04 95.46 39.54 39.54 59.4 39.54 95.46-14.04 69.96-39.54 95.46z"/>
  <path d="M254.96 150h-180a15 15 0 0 0 0 30h180a15 15 0 0 0 0-30z"/>
</svg>
